<mxfile host="app.diagrams.net" agent="Mozilla/5.0 (Macintosh; Intel Mac OS X 10_15_7) AppleWebKit/537.36 (KHTML, like Gecko) Chrome/136.0.0.0 Safari/537.36" version="28.2.3">
  <diagram name="ページ1" id="xtR3QMY_ivg9KzAQHW-j">
    <mxGraphModel dx="2700" dy="1744" grid="1" gridSize="10" guides="1" tooltips="1" connect="1" arrows="1" fold="1" page="1" pageScale="1" pageWidth="827" pageHeight="1169" math="0" shadow="0">
      <root>
        <mxCell id="0" />
        <mxCell id="1" parent="0" />
        <mxCell id="ZU2mIR0JqzNXLWRJzjO4-150" value="" style="verticalLabelPosition=bottom;verticalAlign=top;html=1;shape=mxgraph.basic.rect;fillColor2=none;strokeWidth=1;size=20;indent=5;strokeColor=none;" parent="1" vertex="1">
          <mxGeometry x="330" y="170" width="990" height="710" as="geometry" />
        </mxCell>
        <mxCell id="JZybzeYJvGHH00LdQQcP-5" value="" style="rounded=1;whiteSpace=wrap;html=1;strokeWidth=3;" parent="1" vertex="1">
          <mxGeometry x="363" y="240" width="927" height="620" as="geometry" />
        </mxCell>
        <mxCell id="ZU2mIR0JqzNXLWRJzjO4-2" value="" style="rounded=1;whiteSpace=wrap;html=1;strokeWidth=3;" parent="1" vertex="1">
          <mxGeometry x="1030" y="585" width="235" height="216" as="geometry" />
        </mxCell>
        <mxCell id="ZU2mIR0JqzNXLWRJzjO4-19" value="" style="rounded=1;whiteSpace=wrap;html=1;strokeWidth=3;" parent="1" vertex="1">
          <mxGeometry x="410" y="290" width="370" height="540" as="geometry" />
        </mxCell>
        <mxCell id="ZU2mIR0JqzNXLWRJzjO4-33" value="&lt;font style=&quot;font-size: 18px;&quot;&gt;開発者&lt;/font&gt;" style="shape=umlActor;verticalLabelPosition=bottom;verticalAlign=top;html=1;outlineConnect=0;strokeWidth=2;" parent="1" vertex="1">
          <mxGeometry x="1074" y="701" width="30" height="60" as="geometry" />
        </mxCell>
        <mxCell id="ZU2mIR0JqzNXLWRJzjO4-34" value="&lt;font style=&quot;font-size: 18px;&quot;&gt;開発者&lt;/font&gt;" style="shape=umlActor;verticalLabelPosition=bottom;verticalAlign=top;html=1;outlineConnect=0;strokeWidth=2;" parent="1" vertex="1">
          <mxGeometry x="1134" y="701" width="30" height="60" as="geometry" />
        </mxCell>
        <mxCell id="ZU2mIR0JqzNXLWRJzjO4-35" value="&lt;font style=&quot;font-size: 18px;&quot;&gt;開発者&lt;/font&gt;" style="shape=umlActor;verticalLabelPosition=bottom;verticalAlign=top;html=1;outlineConnect=0;strokeWidth=2;" parent="1" vertex="1">
          <mxGeometry x="1195" y="701" width="30" height="60" as="geometry" />
        </mxCell>
        <mxCell id="ZU2mIR0JqzNXLWRJzjO4-37" value="&lt;font style=&quot;font-size: 18px;&quot;&gt;チームリーダー&lt;/font&gt;" style="shape=umlActor;verticalLabelPosition=bottom;verticalAlign=top;html=1;outlineConnect=0;strokeWidth=2;" parent="1" vertex="1">
          <mxGeometry x="1134" y="601" width="30" height="60" as="geometry" />
        </mxCell>
        <mxCell id="ZU2mIR0JqzNXLWRJzjO4-44" value="&lt;font style=&quot;font-size: 24px;&quot;&gt;開発チーム&lt;/font&gt;" style="text;html=1;align=center;verticalAlign=middle;resizable=0;points=[];autosize=1;strokeColor=none;fillColor=none;" parent="1" vertex="1">
          <mxGeometry x="1077.5" y="545" width="140" height="40" as="geometry" />
        </mxCell>
        <mxCell id="ZU2mIR0JqzNXLWRJzjO4-45" value="&lt;font style=&quot;font-size: 18px;&quot;&gt;開発者&lt;/font&gt;" style="shape=umlActor;verticalLabelPosition=bottom;verticalAlign=top;html=1;outlineConnect=0;strokeWidth=2;" parent="1" vertex="1">
          <mxGeometry x="431.5" y="683" width="30" height="60" as="geometry" />
        </mxCell>
        <mxCell id="ZU2mIR0JqzNXLWRJzjO4-46" value="&lt;font style=&quot;font-size: 18px;&quot;&gt;開発者&lt;/font&gt;" style="shape=umlActor;verticalLabelPosition=bottom;verticalAlign=top;html=1;outlineConnect=0;strokeWidth=2;" parent="1" vertex="1">
          <mxGeometry x="691.75" y="633" width="70.25" height="130" as="geometry" />
        </mxCell>
        <mxCell id="ZU2mIR0JqzNXLWRJzjO4-47" value="&lt;font style=&quot;font-size: 18px;&quot;&gt;チームリーダー&lt;/font&gt;" style="shape=umlActor;verticalLabelPosition=bottom;verticalAlign=top;html=1;outlineConnect=0;strokeWidth=2;" parent="1" vertex="1">
          <mxGeometry x="530" y="321.2" width="30" height="60" as="geometry" />
        </mxCell>
        <mxCell id="ZU2mIR0JqzNXLWRJzjO4-48" value="&lt;font style=&quot;font-size: 24px;&quot;&gt;開発チーム&lt;/font&gt;" style="text;html=1;align=center;verticalAlign=middle;resizable=0;points=[];autosize=1;strokeColor=none;fillColor=none;" parent="1" vertex="1">
          <mxGeometry x="535.5" y="250" width="140" height="40" as="geometry" />
        </mxCell>
        <mxCell id="ZU2mIR0JqzNXLWRJzjO4-50" value="" style="endArrow=classic;startArrow=classic;html=1;rounded=0;edgeStyle=orthogonalEdgeStyle;" parent="1" edge="1">
          <mxGeometry width="50" height="50" relative="1" as="geometry">
            <mxPoint x="472.5" y="709.57" as="sourcePoint" />
            <mxPoint x="690.5" y="709.57" as="targetPoint" />
            <Array as="points">
              <mxPoint x="562.5" y="709.57" />
              <mxPoint x="562.5" y="709.57" />
            </Array>
          </mxGeometry>
        </mxCell>
        <mxCell id="ZU2mIR0JqzNXLWRJzjO4-51" value="" style="endArrow=classic;html=1;rounded=0;" parent="1" edge="1">
          <mxGeometry width="50" height="50" relative="1" as="geometry">
            <mxPoint x="582" y="430" as="sourcePoint" />
            <mxPoint x="691.75" y="640.0008720659102" as="targetPoint" />
          </mxGeometry>
        </mxCell>
        <mxCell id="ZU2mIR0JqzNXLWRJzjO4-56" value="" style="endArrow=classic;startArrow=classic;html=1;rounded=0;edgeStyle=orthogonalEdgeStyle;entryX=-0.008;entryY=0.585;entryDx=0;entryDy=0;entryPerimeter=0;" parent="1" edge="1" target="ZU2mIR0JqzNXLWRJzjO4-2">
          <mxGeometry width="50" height="50" relative="1" as="geometry">
            <mxPoint x="762" y="711" as="sourcePoint" />
            <mxPoint x="972" y="714.0006716039172" as="targetPoint" />
          </mxGeometry>
        </mxCell>
        <mxCell id="ZU2mIR0JqzNXLWRJzjO4-57" value="&lt;div&gt;&lt;font style=&quot;font-size: 24px;&quot;&gt;会話&lt;/font&gt;&lt;/div&gt;&lt;div&gt;&lt;font style=&quot;font-size: 24px;&quot;&gt;フィードバック&lt;/font&gt;&lt;/div&gt;&lt;div&gt;&lt;font style=&quot;font-size: 24px;&quot;&gt;サポート&lt;/font&gt;&lt;/div&gt;" style="text;html=1;align=center;verticalAlign=middle;resizable=0;points=[];autosize=1;strokeColor=none;fillColor=none;" parent="1" vertex="1">
          <mxGeometry x="485.5" y="717" width="190" height="100" as="geometry" />
        </mxCell>
        <mxCell id="ZU2mIR0JqzNXLWRJzjO4-58" value="&lt;span style=&quot;font-size: 24px;&quot;&gt;会話&lt;/span&gt;" style="text;html=1;align=center;verticalAlign=middle;resizable=0;points=[];autosize=1;strokeColor=none;fillColor=none;" parent="1" vertex="1">
          <mxGeometry x="870" y="717" width="70" height="40" as="geometry" />
        </mxCell>
        <mxCell id="ZU2mIR0JqzNXLWRJzjO4-67" value="&lt;font style=&quot;font-size: 24px;&quot;&gt;ミーティング&lt;/font&gt;" style="text;html=1;align=center;verticalAlign=middle;resizable=0;points=[];autosize=1;strokeColor=none;fillColor=none;" parent="1" vertex="1">
          <mxGeometry x="490" y="585" width="170" height="40" as="geometry" />
        </mxCell>
        <mxCell id="ZU2mIR0JqzNXLWRJzjO4-68" value="&lt;font style=&quot;font-size: 24px;&quot;&gt;管理&lt;/font&gt;&lt;div&gt;&lt;font style=&quot;font-size: 24px;&quot;&gt;フィードバック&lt;/font&gt;&lt;/div&gt;&lt;div&gt;&lt;font style=&quot;font-size: 24px;&quot;&gt;サポート&lt;/font&gt;&lt;/div&gt;" style="text;html=1;align=center;verticalAlign=middle;resizable=0;points=[];autosize=1;strokeColor=none;fillColor=none;" parent="1" vertex="1">
          <mxGeometry x="599" y="430" width="190" height="100" as="geometry" />
        </mxCell>
        <mxCell id="ZU2mIR0JqzNXLWRJzjO4-69" value="" style="endArrow=classic;startArrow=classic;html=1;rounded=0;" parent="1" edge="1">
          <mxGeometry width="50" height="50" relative="1" as="geometry">
            <mxPoint x="461.5" y="654.9972936259143" as="sourcePoint" />
            <mxPoint x="521.5" y="430" as="targetPoint" />
          </mxGeometry>
        </mxCell>
        <mxCell id="ZU2mIR0JqzNXLWRJzjO4-70" value="&lt;span style=&quot;font-size: 24px;&quot;&gt;会話&lt;/span&gt;" style="text;html=1;align=center;verticalAlign=middle;resizable=0;points=[];autosize=1;strokeColor=none;fillColor=none;" parent="1" vertex="1">
          <mxGeometry x="427" y="503.3" width="70" height="40" as="geometry" />
        </mxCell>
        <mxCell id="ZU2mIR0JqzNXLWRJzjO4-73" value="&lt;font style=&quot;font-size: 24px;&quot;&gt;プロジェクト&lt;/font&gt;" style="text;html=1;align=center;verticalAlign=middle;resizable=0;points=[];autosize=1;strokeColor=none;fillColor=none;" parent="1" vertex="1">
          <mxGeometry x="741.5" y="200" width="170" height="40" as="geometry" />
        </mxCell>
        <mxCell id="ZU2mIR0JqzNXLWRJzjO4-127" value="&lt;font style=&quot;font-size: 24px;&quot;&gt;モチベーション&lt;/font&gt;&lt;div&gt;&lt;font style=&quot;font-size: 24px;&quot;&gt;自信&lt;/font&gt;&lt;/div&gt;&lt;div&gt;&lt;font style=&quot;font-size: 24px;&quot;&gt;ストレス&lt;/font&gt;&lt;/div&gt;&lt;div&gt;&lt;font style=&quot;font-size: 24px;&quot;&gt;自己効力感&lt;/font&gt;&lt;/div&gt;" style="ellipse;shape=cloud;whiteSpace=wrap;html=1;strokeWidth=2;" parent="1" vertex="1">
          <mxGeometry x="777" y="381.2" width="237" height="252" as="geometry" />
        </mxCell>
        <mxCell id="ZU2mIR0JqzNXLWRJzjO4-131" value="" style="ellipse;whiteSpace=wrap;html=1;aspect=fixed;strokeWidth=2;" parent="1" vertex="1">
          <mxGeometry x="767" y="633.2" width="12" height="12" as="geometry" />
        </mxCell>
        <mxCell id="ZU2mIR0JqzNXLWRJzjO4-142" value="" style="ellipse;whiteSpace=wrap;html=1;aspect=fixed;strokeWidth=2;" parent="1" vertex="1">
          <mxGeometry x="777" y="621.2" width="12" height="12" as="geometry" />
        </mxCell>
        <mxCell id="ZU2mIR0JqzNXLWRJzjO4-143" value="" style="ellipse;whiteSpace=wrap;html=1;aspect=fixed;strokeWidth=2;" parent="1" vertex="1">
          <mxGeometry x="787" y="607.2" width="12" height="12" as="geometry" />
        </mxCell>
        <mxCell id="ZU2mIR0JqzNXLWRJzjO4-144" value="&lt;font style=&quot;font-size: 24px;&quot;&gt;スキル&lt;/font&gt;&lt;div&gt;&lt;font style=&quot;font-size: 24px;&quot;&gt;知識&lt;/font&gt;&lt;/div&gt;" style="ellipse;shape=cloud;whiteSpace=wrap;html=1;strokeWidth=2;" parent="1" vertex="1">
          <mxGeometry x="811" y="554.3000000000001" width="134" height="145.8" as="geometry" />
        </mxCell>
        <mxCell id="ZU2mIR0JqzNXLWRJzjO4-145" value="" style="ellipse;whiteSpace=wrap;html=1;aspect=fixed;strokeWidth=2;" parent="1" vertex="1">
          <mxGeometry x="799" y="662.2" width="12" height="12" as="geometry" />
        </mxCell>
        <mxCell id="ZU2mIR0JqzNXLWRJzjO4-146" value="" style="ellipse;whiteSpace=wrap;html=1;aspect=fixed;strokeWidth=2;" parent="1" vertex="1">
          <mxGeometry x="784" y="669.7" width="11.5" height="11.5" as="geometry" />
        </mxCell>
        <mxCell id="ZU2mIR0JqzNXLWRJzjO4-147" value="" style="ellipse;whiteSpace=wrap;html=1;aspect=fixed;strokeWidth=2;" parent="1" vertex="1">
          <mxGeometry x="767" y="674.2" width="12" height="12" as="geometry" />
        </mxCell>
        <mxCell id="nqloLcfjs0GpqjG_pHt2-4" style="edgeStyle=orthogonalEdgeStyle;rounded=0;orthogonalLoop=1;jettySize=auto;html=1;exitX=0.5;exitY=1;exitDx=0;exitDy=0;" edge="1" parent="1" source="JZybzeYJvGHH00LdQQcP-5" target="JZybzeYJvGHH00LdQQcP-5">
          <mxGeometry relative="1" as="geometry" />
        </mxCell>
      </root>
    </mxGraphModel>
  </diagram>
</mxfile>
